<svg width="48" height="48" viewBox="0 0 51 57" fill="none" xmlns="http://www.w3.org/2000/svg">
<path d="M22.3819 0.160107C18.0172 0.685696 13.1727 2.65093 9.81352 5.26743C4.86616 9.11792 1.40415 14.8422 0.261569 21.0579C0.0216275 22.4175 -0.0926304 26.7479 0.0901821 28.279C0.604342 32.655 2.30678 36.7683 5.14038 40.4931C5.97446 41.59 7.87114 43.5552 8.93374 44.4236L9.57358 44.9377L9.60786 50.1022C9.64214 55.1295 9.65356 55.2667 9.88208 55.5866C10.2249 56.055 10.819 56.4207 11.2303 56.4207C11.7102 56.4207 11.9273 56.2493 14.6124 53.7927C15.8806 52.6273 17.4117 51.2333 18.0058 50.6963L19.0913 49.7251L20.0282 49.9194C22.6104 50.4907 25.8325 50.6278 28.5747 50.3079C33.8762 49.6909 38.8236 47.4286 42.7655 43.818C47.7128 39.2934 50.5007 33.4777 50.9463 26.7365C51.4376 19.504 48.2727 11.723 42.8112 6.69566C40.6746 4.73042 39.2463 3.75923 36.607 2.47954C34.1047 1.26841 31.671 0.548584 28.6661 0.148682C27.1807 -0.0569801 24.13 -0.0455551 22.3819 0.160107ZM28.5518 4.25054C31.2254 4.60474 33.979 5.55308 36.2642 6.88989C41.4858 9.94058 45.1763 15.0822 46.4332 21.035C47.5072 26.1081 46.5703 31.741 43.9309 36.0828C40.9716 40.9501 36.0471 44.5721 30.5513 45.9432C26.9065 46.8573 22.9646 46.743 19.434 45.6233L18.5657 45.3491L17.8687 46.0003C16.8632 46.9487 15.1608 48.4797 13.9839 49.5081L12.9556 50.4107L12.8871 46.4231L12.8185 42.4469L12.3729 42.0927C8.89946 39.3277 6.45434 35.9 5.14038 31.9124C3.40366 26.6565 3.72358 21.2178 6.05444 16.3162C8.17964 11.8715 11.5274 8.42095 15.7778 6.29575C17.8116 5.27886 20.9879 4.35337 23.0103 4.17056C24.2329 4.0563 27.4664 4.11343 28.5518 4.25054Z" fill="#244E3C"/>
<path d="M23.9243 7.32409C23.1474 7.58688 22.0391 8.5695 21.6278 9.3693C21.1365 10.3062 21.125 10.5347 21.125 18.7384V26.5994H19.9253H18.7256L18.737 27.1707C18.7485 27.4906 18.737 27.7648 18.7142 27.7877C18.6913 27.8105 18.3371 28.039 17.9372 28.3018C16.4862 29.2273 14.898 29.6044 13.6754 29.2844C11.8359 28.816 10.9789 27.4563 11.2874 25.5139C11.3674 25.0798 11.5731 24.3828 11.7559 23.9829C12.1558 23.1374 12.1901 22.8289 11.8816 22.8289C11.356 22.8289 9.99631 24.9541 9.66497 26.3137C9.11653 28.4846 9.43645 30.1299 10.659 31.4782C12.1101 33.0778 14.6695 33.3977 17.2745 32.3123C17.7658 32.1066 18.7713 31.5353 19.5026 31.044L20.8394 30.1414H28.7574H36.6641V26.9079C36.6641 24.0629 36.6869 23.6515 36.8583 23.4002C37.1211 23.0117 37.2354 22.9431 37.6239 22.9431C38.0695 22.9431 38.6293 23.5601 38.9607 24.3942C39.3149 25.3197 39.3263 27.0107 38.9721 28.1419C38.4922 29.7072 37.3496 31.044 35.5672 32.1066C33.6591 33.2263 32.368 33.6034 30.2656 33.6377C29.1345 33.6605 28.7232 33.6948 28.7232 33.809C28.7232 33.8776 29.1802 34.2661 29.7286 34.666C31.1226 35.6715 31.911 35.9114 33.5677 35.82C36.5384 35.6715 38.8464 33.9919 40.3318 30.884C41.2915 28.8617 41.7143 26.3709 41.4743 24.1657C41.2573 22.0519 40.7888 20.8065 39.8747 19.8696C38.7779 18.7499 37.8067 19.0012 35.7843 20.9208L34.9502 21.7091L34.9274 24.1314L34.8931 26.5423H29.2945H23.6958L23.6615 18.1443C23.6387 13.5283 23.6615 9.47214 23.6958 9.14079C23.7415 8.74089 23.8901 8.36384 24.1529 7.97536C24.5756 7.33552 24.5071 7.12985 23.9243 7.32409Z" fill="#244E3C"/>
<path d="M33.682 13.0827C32.9622 13.8254 32.2652 14.5795 32.1509 14.7623L31.9338 15.0936L32.368 15.4478C32.6194 15.6421 33.0193 15.9963 33.2707 16.2362C33.7048 16.6475 33.7163 16.6818 33.6706 17.2645C33.6134 18.0072 33.2592 18.7499 32.5166 19.7325C31.911 20.5323 31.8082 20.7951 32.1052 20.8636C32.3909 20.9208 34.059 19.0584 34.5389 18.1443C35.2016 16.8989 35.4301 15.8363 35.4416 13.9739C35.4644 12.3057 35.3844 11.7459 35.1445 11.7459C35.0759 11.7459 34.4132 12.3514 33.682 13.0827Z" fill="#244E3C"/>
<path d="M26.7922 13.6425C26.1866 14.3052 25.6953 14.9451 25.6953 15.0593C25.6953 15.2764 28.0262 17.3445 28.2661 17.3445C28.4261 17.3445 30.6084 14.9793 30.6084 14.7965C30.6084 14.6708 28.0833 12.4314 27.9462 12.4314C27.9119 12.4314 27.3978 12.9798 26.7922 13.6425Z" fill="#244E3C"/>
<path d="M15.9034 15.2536C15.3207 15.9163 14.8408 16.5332 14.8408 16.6132C14.8408 16.7275 16.4861 18.1557 17.423 18.8527C17.5716 18.9669 19.7882 16.4875 19.7311 16.259C19.6854 16.0534 17.3316 14.0424 17.126 14.031C17.0346 14.031 16.4747 14.5794 15.9034 15.2536Z" fill="#244E3C"/>
<path d="M26.7808 19.6868C26.2209 20.338 25.7524 20.955 25.7524 21.0464C25.7524 21.2407 28.1176 23.2859 28.3461 23.2859C28.4832 23.2859 30.4027 21.1378 30.6312 20.7379C30.6884 20.6123 30.3799 20.2923 29.443 19.5268C28.746 18.9555 28.0947 18.4871 27.9919 18.4871C27.8891 18.4871 27.3521 19.0241 26.7808 19.6868Z" fill="#244E3C"/>
<path d="M23.4673 32.9407C22.9646 33.5919 22.5418 34.1746 22.519 34.2318C22.5075 34.2889 23.0674 34.7345 23.7758 35.2258L25.0669 36.0942L25.4668 35.6143C25.6839 35.3515 26.1067 34.8488 26.4037 34.4946C26.7008 34.1404 26.9522 33.7747 26.9522 33.6719C26.9522 33.5577 26.4951 33.192 25.8667 32.7693C25.2726 32.3808 24.7241 31.9809 24.6556 31.9009C24.587 31.8095 24.4956 31.741 24.4499 31.7524C24.4157 31.7524 23.97 32.2894 23.4673 32.9407Z" fill="#244E3C"/>
</svg>
