<svg width="27" height="27" viewBox="0 0 40 39" fill="none" xmlns="http://www.w3.org/2000/svg">
<path d="M36.5764 38.25L22.9264 24.8625C21.8431 25.7125 20.5972 26.3854 19.1889 26.8813C17.7806 27.3771 16.282 27.625 14.6931 27.625C10.757 27.625 7.42571 26.288 4.69932 23.6141C1.97294 20.9401 0.609741 17.6729 0.609741 13.8125C0.609741 9.95208 1.97294 6.6849 4.69932 4.01094C7.42571 1.33698 10.757 0 14.6931 0C18.6292 0 21.9604 1.33698 24.6868 4.01094C27.4132 6.6849 28.7764 9.95208 28.7764 13.8125C28.7764 15.3708 28.5236 16.8406 28.0181 18.2219C27.5125 19.6031 26.8264 20.825 25.9597 21.8875L39.6097 35.275L36.5764 38.25ZM14.6931 23.375C17.4014 23.375 19.7035 22.4453 21.5993 20.5859C23.4952 18.7266 24.4431 16.4688 24.4431 13.8125C24.4431 11.1562 23.4952 8.89844 21.5993 7.03906C19.7035 5.17969 17.4014 4.25 14.6931 4.25C11.9847 4.25 9.68266 5.17969 7.78682 7.03906C5.89099 8.89844 4.94307 11.1562 4.94307 13.8125C4.94307 16.4688 5.89099 18.7266 7.78682 20.5859C9.68266 22.4453 11.9847 23.375 14.6931 23.375Z" fill="#244E3C"/>
</svg>
